<?xml version="1.0" encoding="utf-8"?>
<!-- Generator: Adobe Illustrator 28.1.0, SVG Export Plug-In . SVG Version: 6.00 Build 0)  -->
<svg version="1.0" id="Layer_1" xmlns="http://www.w3.org/2000/svg" xmlns:xlink="http://www.w3.org/1999/xlink" x="0px" y="0px"
	 viewBox="0 0 24 24" enable-background="new 0 0 24 24" xml:space="preserve">
<path fill="none" stroke="#000000" d="M-9.7,26.5c0,1.1-0.9,2-2,2h-16c-1.1,0-2-0.9-2-2v-14c0-1.1,0.9-2,2-2h5l2,3h9
	c1.1,0,2,0.9,2,2V26.5z"/>
<g id="vlpa">
	<g id="vlpb">
		<g id="vlpc">
			<g id="vlpd">
				<path fill="none" stroke="#64FFDA" stroke-width="1.0757" stroke-miterlimit="10" d="M6,3H18c1.8,0,3.3,1.5,3.3,3.3v11.4
					c0,1.8-1.5,3.3-3.3,3.3H6c-1.8,0-3.3-1.5-3.3-3.3V6.3C2.8,4.5,4.2,3,6,3z"/>
			</g>
		</g>
	</g>
	<g id="vlpe">
		<g id="vlpf">
			<path fill="#64FFDA" d="M10.2,13.7H7.3l-0.6,1.8c0,0.1-0.1,0.1-0.1,0.1H5.2c-0.1,0-0.1,0-0.1-0.1l2.5-7.1c0-0.1,0-0.1,0.1-0.2
				c0-0.2,0-0.3,0-0.5c0,0,0-0.1,0.1-0.1h0h2c0.1,0,0.1,0,0.1,0.1l2.8,7.8c0,0.1,0,0.1-0.1,0.1h-1.6c-0.1,0-0.1,0-0.1-0.1L10.2,13.7
				L10.2,13.7z M7.8,12.2h2c0-0.2-0.1-0.4-0.2-0.6c-0.1-0.2-0.1-0.4-0.2-0.7c-0.1-0.2-0.1-0.5-0.2-0.7S9,9.8,8.9,9.6
				C8.8,9.4,8.8,9.2,8.7,9h0c-0.1,0.3-0.2,0.7-0.3,1c-0.1,0.4-0.2,0.8-0.4,1.1C8,11.5,7.9,11.9,7.8,12.2z"/>
			<path fill="#64FFDA" d="M17.1,13.1h-2.4c0,0.2,0.1,0.5,0.2,0.7c0.1,0.2,0.3,0.4,0.6,0.5c0.3,0.1,0.6,0.2,1,0.2
				c0.3,0,0.5,0,0.8-0.1c0.2,0,0.5-0.1,0.7-0.2c0,0,0.1,0,0.1,0.1v1.2c0,0,0,0.1,0,0.1c0,0,0,0-0.1,0.1c-0.2,0.1-0.5,0.2-0.8,0.2
				c-0.4,0.1-0.7,0.1-1.1,0.1c-0.6,0-1.1-0.1-1.5-0.3c-0.4-0.2-0.7-0.4-1-0.7c-0.2-0.3-0.4-0.6-0.5-1C13,13.5,13,13.1,13,12.7
				c0-0.4,0.1-0.8,0.2-1.2c0.1-0.4,0.3-0.7,0.6-1.1c0.3-0.3,0.6-0.6,0.9-0.7s0.8-0.2,1.3-0.2c0.4,0,0.8,0.1,1.2,0.2
				c0.3,0.1,0.6,0.3,0.8,0.6c0.2,0.3,0.4,0.6,0.5,0.9c0.1,0.3,0.1,0.6,0.1,0.9c0,0.2,0,0.3,0,0.5c0,0.1,0,0.3,0,0.3
				c0,0.1-0.1,0.1-0.1,0.1c0,0-0.1,0-0.3,0c-0.1,0-0.3,0-0.4,0S17.3,13.1,17.1,13.1L17.1,13.1z M14.7,11.9h1.6c0.2,0,0.3,0,0.4,0
				c0.1,0,0.1,0,0.2-0.1v-0.1c0-0.1,0-0.2,0-0.3c-0.1-0.4-0.5-0.7-1-0.7c-0.4,0-0.8,0.2-1,0.6C14.8,11.6,14.7,11.7,14.7,11.9z"/>
		</g>
	</g>
</g>
</svg>
