    <svg
      xmlns="http://www.w3.org/2000/svg"
      x="0"
      y="0"
      version="1"
      viewBox="0 0 397.5 397.4"
      xmlSpace="preserve"
    >
      <circle cx="198.7" cy="198.7" r="177.2" fill="#66F"></circle>
      <path
        fill="none"
        d="M198.7 15.5c-101.2 0-183.2 82-183.2 183.2s82 183.2 183.2 183.2S382 299.9 382 198.7 299.9 15.5 198.7 15.5z"
      ></path>
      <path
        fill="#64FFDA"
        d="M328.4 245.8c-.6 1.6-2.1 2.8-3.9 2.7l-67.4-.1c-1.3 0-2.6-.8-3.1-2l-67.7-151c-.5-1.1.3-2.4 1.6-2.4l98.1.1c.9 0 1.9.3 2.6.9 11.1 9.6 20.7 20.9 28.4 33.5 1 1.6-.2 3.6-2 3.6l-68.3-.1c-1.2 0-2.1 1.3-1.6 2.4l33.8 75.3c.9 1.8 1.3 1.8 2.8 1.8h52c1.4 0 2.5 1.2 2.4 2.6-1.3 11.4-3.9 22.4-7.7 32.7zM227.9 248.5l-156.3-.1c-1 0-1.9-.6-2.2-1.5-4-10.7-6.7-22.1-7.9-33.9-.1-1.4 1-2.6 2.3-2.6l107.3.1c1.2 0 2.1-1.3 1.6-2.4l-33.6-75c-.9-1.7-1.5-2.1-3.9-2.1H82.6c-1.8 0-3-2-2-3.6 7.5-12.3 16.9-23.4 27.7-32.8 1.2-1 2.6-1.5 4.2-1.5l48 .1c1.3 0 2.6.8 3.1 2L230 242.7c1.5 3 1.1 5.8-2.1 5.8zM110.3 304.6c-11.4-9.6-21.2-20.9-29-33.6-1-1.6.2-3.6 2-3.6l231.1-.2c1.9 0 3 2 2 3.6-7.8 12.7-17.6 24.1-29 33.6l-177.1.2z"
      ></path>
    </svg>
