<?xml version="1.0" encoding="utf-8"?>
<!-- Generator: Adobe Illustrator 28.1.0, SVG Export Plug-In . SVG Version: 6.00 Build 0)  -->
<svg version="1.0" id="nic_logo_v2" xmlns="http://www.w3.org/2000/svg" xmlns:xlink="http://www.w3.org/1999/xlink" x="0px"
	 y="0px" viewBox="0 0 397.5 397.4" enable-background="new 0 0 397.5 397.4" xml:space="preserve">
<circle fill="#6666FF" cx="198.7" cy="198.7" r="177.2"/>
<path fill="none" d="M198.7,15.5c-101.2,0-183.2,82-183.2,183.2s82,183.2,183.2,183.2S382,299.9,382,198.7S299.9,15.5,198.7,15.5z"
	/>
<path fill="#64FFDA" d="M328.4,245.8c-0.6,1.6-2.1,2.8-3.9,2.7l-67.4-0.1c-1.3,0-2.6-0.8-3.1-2L186.3,95.4c-0.5-1.1,0.3-2.4,1.6-2.4
	l98.1,0.1c0.9,0,1.9,0.3,2.6,0.9c11.1,9.6,20.7,20.9,28.4,33.5c1,1.6-0.2,3.6-2,3.6l-68.3-0.1c-1.2,0-2.1,1.3-1.6,2.4l33.8,75.3
	c0.9,1.8,1.3,1.8,2.8,1.8l52,0c1.4,0,2.5,1.2,2.4,2.6C334.8,224.5,332.2,235.5,328.4,245.8L328.4,245.8z"/>
<path fill="#64FFDA" d="M227.9,248.5l-156.3-0.1c-1,0-1.9-0.6-2.2-1.5c-4-10.7-6.7-22.1-7.9-33.9c-0.1-1.4,1-2.6,2.3-2.6l107.3,0.1
	c1.2,0,2.1-1.3,1.6-2.4l-33.6-75c-0.9-1.7-1.5-2.1-3.9-2.1l-52.6,0c-1.8,0-3-2-2-3.6c7.5-12.3,16.9-23.4,27.7-32.8
	c1.2-1,2.6-1.5,4.2-1.5l48,0.1c1.3,0,2.6,0.8,3.1,2L230,242.7C231.5,245.7,231.1,248.5,227.9,248.5L227.9,248.5z"/>
<path fill="#64FFDA" d="M110.3,304.6L110.3,304.6C98.9,295,89.1,283.7,81.3,271c-1-1.6,0.2-3.6,2-3.6l231.1-0.2c1.9,0,3,2,2,3.6
	c-7.8,12.7-17.6,24.1-29,33.6h0L110.3,304.6L110.3,304.6z"/>
</svg>
