<?xml version="1.0" encoding="UTF-8"?><svg id="nic_logo_v2" xmlns="http://www.w3.org/2000/svg" viewBox="0 0 384.52 384.5"><defs><style>.cls-1{fill:none;stroke:#66f;stroke-miterlimit:10;stroke-width:30.17px;}.cls-2{fill:#66f;stroke-width:0px;}</style></defs><path class="cls-1" d="M192.27,15.09C94.41,15.09,15.09,94.4,15.09,192.25s79.32,177.16,177.18,177.16,177.16-79.31,177.16-177.16S290.11,15.09,192.27,15.09Z"/><path class="cls-2" d="M321.95,239.37c-.6,1.64-2.14,2.75-3.89,2.74l-67.41-.08c-1.34,0-2.55-.78-3.11-2.02l-67.71-151.05c-.51-1.14.32-2.43,1.57-2.43l98.12.09c.94,0,1.85.33,2.56.94,11.13,9.56,20.72,20.87,28.35,33.5.95,1.58-.18,3.59-2.02,3.59l-68.34-.06c-1.24,0-2.08,1.28-1.56,2.43l33.75,75.29c.87,1.82,1.28,1.78,2.81,1.78l52.04.04c1.39,0,2.49,1.2,2.35,2.58-1.18,11.36-3.73,22.3-7.5,32.67Z"/><path class="cls-2" d="M221.47,241.99l-156.26-.13c-.98,0-1.87-.61-2.21-1.53-3.99-10.73-6.69-22.08-7.89-33.88-.14-1.38.96-2.58,2.35-2.58l107.33.08c1.25,0,2.09-1.29,1.56-2.43l-33.62-74.97c-.85-1.65-1.48-2.1-3.85-2.1l-52.56-.04c-1.84,0-2.97-2.02-2.02-3.6,7.49-12.35,16.86-23.42,27.72-32.83,1.15-1,2.64-1.53,4.16-1.53l48.01.06c1.34,0,2.56.78,3.11,2l66.19,147.67c1.5,3,1.17,5.81-2.03,5.81Z"/><path class="cls-2" d="M103.85,298.09h-.02c-11.4-9.55-21.21-20.88-29.04-33.59-.97-1.57.16-3.61,2.01-3.61l231.08-.16c1.85,0,2.98,2.03,2.02,3.61-7.81,12.72-17.63,24.08-29.02,33.63h-.02l-177.01.12Z"/></svg>