<?xml version="1.0" encoding="utf-8"?>
<!-- Generator: Adobe Illustrator 28.1.0, SVG Export Plug-In . SVG Version: 6.00 Build 0)  -->
<svg version="1.0" id="Layer_1" xmlns="http://www.w3.org/2000/svg" xmlns:xlink="http://www.w3.org/1999/xlink" x="0px" y="0px"
	 viewBox="0 0 24 24" enable-background="new 0 0 24 24" xml:space="preserve">
<path fill="none" stroke="#000000" d="M-9.7,26.5c0,1.1-0.9,2-2,2h-16c-1.1,0-2-0.9-2-2v-14c0-1.1,0.9-2,2-2h5l2,3h9
	c1.1,0,2,0.9,2,2V26.5z"/>
<g id="SVGRepo_iconCarrier">
	<path stroke="#000000" stroke-width="1.805145e-02" stroke-miterlimit="8" d="M15.9,14.7c-0.3,0-0.4-0.2-0.4-0.2
		c0-0.1-0.1-1.4-0.1-2.6c0-1.3,0-2.6,0.1-2.7C15.9,8.5,17,7.1,17,7.1C14.8,7.5,13.6,9,13.6,9c-0.4-0.3-1.1-0.2-1.1-0.2
		c0.3,0.2,0.7,0.7,0.7,1.2v4.5c0,0-0.7,0.7-1.3,0.7c-0.3,0-0.5-0.2-0.7-0.3c0-0.1-0.1-0.1-0.1-0.2V9c-0.1,0.1-0.2,0.1-0.3,0.1
		c-0.1,0-0.3-0.1-0.3-0.2c-0.1-0.1-0.1-0.3-0.1-0.6c0-1,1.1-1.7,1.1-1.7c-1.5,0.4-2.8,1.1-4.6,3.2c-1.8,2.1-1.5,3.8-1.5,3.8
		s0.5-1.2,1.7-2.4c0.6-0.6,1-0.8,1.3-0.8c0.3,0,0.5,0.2,0.5,0.4V15c0,0.4-0.3,0.5-0.5,0.5c-0.2,0-0.4-0.1-0.4-0.1
		c1.2,1.8,4.2,2,4.2,2l1.3-1.4l0,0l1.2,1c2.2-1.3,3.2-3.7,3.2-3.7C16.9,14.4,16.3,14.7,15.9,14.7z M15.9,14.7
		c-0.3,0-0.4-0.2-0.4-0.2c0-0.1-0.1-1.4-0.1-2.6c0-1.3,0-2.6,0.1-2.7C15.9,8.5,17,7.1,17,7.1C14.8,7.5,13.6,9,13.6,9
		c-0.4-0.3-1.1-0.2-1.1-0.2c0.3,0.2,0.7,0.7,0.7,1.2v4.5c0,0-0.7,0.7-1.3,0.7c-0.3,0-0.5-0.2-0.7-0.3c0-0.1-0.1-0.1-0.1-0.2V9
		c-0.1,0.1-0.2,0.1-0.3,0.1c-0.1,0-0.3-0.1-0.3-0.2c-0.1-0.1-0.1-0.3-0.1-0.6c0-1,1.1-1.7,1.1-1.7c-1.5,0.4-2.8,1.1-4.6,3.2
		c-1.8,2.1-1.5,3.8-1.5,3.8s0.5-1.2,1.7-2.4c0.6-0.6,1-0.8,1.3-0.8c0.3,0,0.5,0.2,0.5,0.4V15c0,0.4-0.3,0.5-0.5,0.5
		c-0.2,0-0.4-0.1-0.4-0.1c1.2,1.8,4.2,2,4.2,2l1.3-1.4l0,0l1.2,1c2.2-1.3,3.2-3.7,3.2-3.7C16.9,14.4,16.3,14.7,15.9,14.7z
		 M15.9,14.7c-0.3,0-0.4-0.2-0.4-0.2c0-0.1-0.1-1.4-0.1-2.6c0-1.3,0-2.6,0.1-2.7C15.9,8.5,17,7.1,17,7.1C14.8,7.5,13.6,9,13.6,9
		c-0.4-0.3-1.1-0.2-1.1-0.2c0.3,0.2,0.7,0.7,0.7,1.2v4.5c0,0-0.7,0.7-1.3,0.7c-0.3,0-0.5-0.2-0.7-0.3c0-0.1-0.1-0.1-0.1-0.2V9
		c-0.1,0.1-0.2,0.1-0.3,0.1c-0.1,0-0.3-0.1-0.3-0.2c-0.1-0.1-0.1-0.3-0.1-0.6c0-1,1.1-1.7,1.1-1.7c-1.5,0.4-2.8,1.1-4.6,3.2
		c-1.8,2.1-1.5,3.8-1.5,3.8s0.5-1.2,1.7-2.4c0.6-0.6,1-0.8,1.3-0.8c0.3,0,0.5,0.2,0.5,0.4V15c0,0.4-0.3,0.5-0.5,0.5
		c-0.2,0-0.4-0.1-0.4-0.1c1.2,1.8,4.2,2,4.2,2l1.3-1.4l0,0l1.2,1c2.2-1.3,3.2-3.7,3.2-3.7C16.9,14.4,16.3,14.7,15.9,14.7z"/>
</g>
<circle fill="none" stroke="#000000" stroke-width="1.3177" stroke-miterlimit="8" cx="12" cy="12" r="8.9"/>
</svg>
